<svg width="57" height="52" viewBox="0 0 57 52" fill="none" xmlns="http://www.w3.org/2000/svg">
<path d="M50.585 20.824L50.5851 20.8239C52.2054 19.2036 53.1 17.0461 53.1 14.7472C53.1 12.4482 52.2054 10.2961 50.5852 8.67062L50.5851 8.6705C47.2336 5.31905 41.7883 5.31905 38.4369 8.6705L36.4328 10.6746L34.4287 8.6705C32.8083 7.05014 30.6509 6.15562 28.352 6.15562C26.053 6.15562 23.9008 7.0502 22.2754 8.67039L22.2753 8.6705C20.4974 10.4484 19.6694 12.8134 19.7759 15.1412H5.11837C4.76737 15.1412 4.47757 15.4246 4.47757 15.782V40.0182L1.01757 44.8333C0.876012 45.0302 0.857493 45.2836 0.96824 45.499C1.07918 45.7147 1.29575 45.8444 1.53557 45.8444H48.7048C48.946 45.8444 49.1613 45.7083 49.2716 45.5L49.2721 45.499C49.3828 45.2836 49.3643 45.0302 49.2228 44.8333L45.7628 40.0182V25.6411L50.585 20.824ZM36.8874 12.0316L36.8883 12.0307L39.3427 9.57633C42.1948 6.72418 46.8323 6.72418 49.6845 9.57633C51.0646 10.9564 51.8288 12.7926 51.8288 14.7472C51.8288 16.7019 51.0697 18.538 49.6846 19.918L49.6845 19.9181L44.6769 24.9257L36.4328 33.1646L23.1863 19.9181C20.3341 17.066 20.3341 12.4285 23.1863 9.57633C24.5663 8.19633 26.4024 7.43722 28.3572 7.43722C30.3119 7.43722 32.1481 8.19633 33.5281 9.57633L35.9825 12.0307C36.23 12.2783 36.6358 12.277 36.8874 12.0316ZM44.8003 40.8576L47.4645 44.5628H2.78624L5.45043 40.8576H44.8003ZM44.4864 39.5812H5.75917V16.4228H19.9337C20.2496 18.0349 21.0336 19.577 22.2805 20.8239L35.9305 34.4739C36.0698 34.6132 36.2532 34.6762 36.4325 34.6592H36.4326H36.4327H36.4328H36.4329H36.433H36.4331H36.4331H36.4332H36.4333H36.4334H36.4335H36.4336H36.4337H36.4338H36.4339H36.434H36.4341H36.4341H36.4342H36.4343H36.4344H36.4345H36.4346H36.4347H36.4348H36.4349H36.435H36.4351H36.4352H36.4352H36.4353H36.4354H36.4355H36.4356H36.4357H36.4358H36.4359H36.436H36.4361H36.4362H36.4362H36.4363H36.4364H36.4365H36.4366H36.4367H36.4368H36.4369H36.437H36.4371H36.4372H36.4373H36.4373H36.4374H36.4375H36.4376H36.4377H36.4378H36.4379H36.438H36.4381H36.4382H36.4383H36.4384H36.4384H36.4385H36.4386H36.4387H36.4388H36.4389H36.439H36.4391H36.4392H36.4393H36.4394H36.4394H36.4395H36.4396H36.4397H36.4398H36.4399H36.44H36.4401H36.4402H36.4403H36.4404H36.4405H36.4405H36.4406H36.4407H36.4408H36.4409H36.441H36.4411H36.4412H36.4413H36.4414H36.4415H36.4416H36.4416H36.4417H36.4418H36.4419H36.442H36.4421H36.4422H36.4423H36.4424H36.4425H36.4426H36.4426H36.4427H36.4428H36.4429H36.443H36.4431H36.4432H36.4433H36.4434H36.4435H36.4436H36.4437H36.4437H36.4438H36.4439H36.444H36.4441H36.4442H36.4443H36.4444H36.4445H36.4446H36.4447H36.4448H36.4448H36.4449H36.445H36.4451H36.4452H36.4453H36.4454H36.4455H36.4456H36.4457H36.4458H36.4458H36.4459H36.446H36.4461H36.4462H36.4463H36.4464H36.4465H36.4466H36.4467H36.4468H36.4469H36.4469H36.447H36.4471H36.4472H36.4473H36.4474H36.4475H36.4476H36.4477H36.4478H36.4479H36.448H36.448H36.4481H36.4482H36.4483H36.4484H36.4485H36.4486H36.4487H36.4488H36.4489H36.449H36.449H36.4491H36.4492H36.4493H36.4494H36.4495H36.4496H36.4497H36.4498H36.4499H36.45H36.4501H36.4501H36.4502H36.4503H36.4504H36.4505H36.4506H36.4507H36.4508H36.4509H36.451H36.4511H36.4511H36.4512H36.4513H36.4514H36.4515H36.4516H36.4517H36.4518H36.4519H36.452H36.4521H36.4522H36.4522H36.4523H36.4524H36.4525H36.4526H36.4527H36.4528H36.4529H36.453H36.4531H36.4532H36.4533H36.4533H36.4534H36.4535H36.4536H36.4537H36.4538H36.4539H36.454H36.4541H36.4542H36.4543H36.4543H36.4544H36.4545H36.4546H36.4547H36.4548H36.4549H36.455H36.4551H36.4552H36.4553H36.4554H36.4554H36.4555H36.4556H36.4557H36.4558H36.4559H36.456H36.4561H36.4562H36.4563H36.4564H36.4565H36.4565H36.4566H36.4567H36.4568H36.4569H36.457H36.4571H36.4572H36.4573H36.4574H36.4575H36.4576H36.4576H36.4577H36.4578H36.4579H36.458H36.4581H36.4582H36.4583H36.4584H36.4585H36.4586H36.4586H36.4587H36.4588H36.4589H36.459H36.4591H36.4592H36.4593H36.4594H36.4595H36.4596H36.4597H36.4597H36.4598H36.4599H36.46H36.4601H36.4602H36.4603H36.4604H36.4605H36.4606H36.4607H36.4608H36.4608H36.4609H36.461H36.4611H36.4612H36.4613H36.4614H36.4615H36.4616H36.4617H36.4618H36.4618H36.4619H36.462H36.4621H36.4622H36.4623H36.4624H36.4625H36.4626H36.4627H36.4628H36.4629H36.4629H36.463H36.4631H36.4632H36.4633H36.4634H36.4635H36.4636H36.4637H36.4638H36.4639H36.4639H36.464H36.4641H36.4642H36.4643H36.4644H36.4645H36.4646H36.4647H36.4648H36.4649H36.465H36.465H36.4651H36.4652H36.4653H36.4654H36.4655H36.4656H36.4657H36.4658H36.4659H36.466H36.4661H36.4661H36.4662H36.4663H36.4664H36.4665H36.4666H36.4667H36.4668H36.4669H36.467H36.4671H36.4671H36.4672H36.4673H36.4674H36.4675H36.4676H36.4677H36.4678H36.4679H36.468H36.4681H36.4682H36.4682H36.4683H36.4684H36.4685H36.4686H36.4687H36.4688H36.4689H36.469H36.4691H36.4692H36.4692H36.4693H36.4694H36.4695H36.4696H36.4697H36.4698H36.4699H36.47H36.4701H36.4702H36.4703H36.4703H36.4704H36.4705H36.4706H36.4707H36.4708H36.4709H36.471H36.4711H36.4712H36.4713H36.4714H36.4714H36.4715H36.4716H36.4717H36.4718H36.4719H36.472H36.4721H36.4722H36.4723H36.4724H36.4725H36.4725H36.4726H36.4727H36.4728H36.4729H36.473H36.4731H36.4732H36.4733H36.4734H36.4735H36.4735H36.4736H36.4737H36.4738H36.4739H36.474H36.4741H36.4742H36.4743H36.4744C36.64 34.6592 36.801 34.5976 36.9247 34.474C36.9247 34.4739 36.9247 34.4739 36.9247 34.4739L44.4864 26.9173V39.5812Z" fill="black" stroke="black" stroke-width="0.2"/>
<path d="M19.9396 32.006L19.9396 32.0054C19.9289 30.1412 18.4129 28.6248 16.548 28.6248H13.0432C11.1784 28.6248 9.66201 30.1412 9.66201 32.006V35.6668C9.66201 36.0178 9.94535 36.3076 10.3028 36.3076C10.6596 36.3076 10.9436 36.0236 10.9436 35.6668V32.006C10.9436 30.8444 11.8868 29.9012 13.0484 29.9012H16.5532C17.7148 29.9012 18.658 30.8444 18.658 32.006V35.8384C18.658 36.1894 18.9414 36.4792 19.2988 36.4792C19.6556 36.4792 19.9396 36.1952 19.9396 35.8384L19.9396 32.006Z" fill="#F6AC33" stroke="#F6AC33" stroke-width="0.2"/>
<path d="M14.7957 28.5544C16.8841 28.5544 18.5825 26.856 18.5825 24.7676C18.5825 22.6792 16.8841 20.9808 14.7957 20.9808C12.7072 20.9808 11.0089 22.6792 11.0089 24.7676C11.0089 26.856 12.7072 28.5544 14.7957 28.5544ZM14.7957 22.2572C16.1808 22.2572 17.3061 23.3824 17.3061 24.7676C17.3061 26.1528 16.1808 27.278 14.7957 27.278C13.4105 27.278 12.2853 26.1528 12.2853 24.7676C12.2853 23.3824 13.4105 22.2572 14.7957 22.2572Z" fill="#F6AC33" stroke="#F6AC33" stroke-width="0.2"/>
</svg>
